<svg xmlns="http://www.w3.org/2000/svg" width="120" height="17" viewBox="0 0 120 17"><g fill="#FFF" fill-rule="evenodd"><path d="M42.375 14.049c3.167 0 4.104-1.657 4.104-5.458v-.793c0-4.044-1.23-5.315-4.312-5.315h-3.258v11.565l3.466.001zM35.84.293l6.708-.01c4.98 0 6.954 2.06 6.954 7.29v.882c0 5.167-1.704 7.75-6.933 7.75l-6.729-.02V.293zM51.492 10.4V.591h3.06v9.563c0 3.471 1.77 4.29 4.103 4.29 2.313 0 3.917-.819 3.917-4.29V.591h2.976v8.825c0 4.918-1.73 7.344-7.028 7.344-4.35 0-7.028-2.296-7.028-6.36m16.466 5.83v-2.296h4.997c2.375 0 3.421-.937 3.421-2.155 0-.98-.525-1.763-2.254-2.173l-2.146-.534c-2.333-.553-4.326-1.742-4.326-4.49 0-2.686 2.451-4.215 6.222-4.235l5.666-.01-.217 1.208a1.537 1.537 0 0 1-1.515 1.23l-3.872-.01c-1.729 0-3.02.422-3.02 1.775 0 1.292.708 1.723 2.312 2.194l2.104.533c2.458.616 4.289 1.638 4.289 4.39 0 2.955-2.206 4.593-6.414 4.573h-5.247zm30.37-13.434c-3.854 0-5.062 2.256-5.062 5.27v.841c0 3.301.937 5.413 4.728 5.413.938 0 2.209-.143 2.813-.327V9.912h-2.474a.832.832 0 0 1-.838-.825V7.79h6.206v7.823c-1.25.512-3.457.963-5.686.963-4.77 0-7.925-2.071-7.925-7.649v-.635c0-6.09 3.78-7.854 8.03-7.854h4.978l-.352 1.329a1.396 1.396 0 0 1-1.354 1.03h-3.064zM0 16.19V.521h4.538l3.871 10.925h.043L12.707.521h4.287V16.19h-2.849V3.526h-.043l-4.603 12.33H7.351L2.906 3.526h-.042V16.19zM106.201 16.151V.517h2.997l7.105 10.802.067-10.802h2.965v15.634h-3.032l-7.105-11.048v11.048zM21.824 8.44c0 3.092.773 6.297 4.566 6.297 3.992 0 4.635-3.205 4.635-6.297 0-3.091-.643-6.176-4.535-6.176-3.893 0-4.666 3.085-4.666 6.176m12.247 0c0 5.357-2.397 8.44-7.581 8.44-5.185 0-7.592-3.083-7.592-8.44 0-5.214 2.407-8.44 7.592-8.44 5.184 0 7.58 3.226 7.58 8.44M87.108.164h3.102l-6.922 16.161h-3.102z"/></g></svg>